<svg fill="currentColor" stroke="currentColor" t="1724074187401" class="icon" viewBox="0 0 1024 1024" version="1.1" xmlns="http://www.w3.org/2000/svg" p-id="2870" id="mx_n_1724074187403" width="200" height="200"><path fill="currentColor" stroke="currentColor" d="M943.024113 225.134752L746.212766 19.971631a62.456738 62.456738 0 0 0-91.506383 0L151.058156 544.680851a95.137589 95.137589 0 0 0-26.144681 68.629787l15.614185 254.184397 232.760283 3.994327h2.904965a87.875177 87.875177 0 0 0 63.182979-27.234043L943.024113 320.27234a68.992908 68.992908 0 0 0 0-95.137588zM395.075177 802.133333a26.507801 26.507801 0 0 1-18.882269 8.351773h-1.815603l-175.750355-2.904964-12.346099-196.811348a34.133333 34.133333 0 0 1 9.078014-23.602837l390.717731-406.695035L787.971631 391.807092zM898.723404 277.787234l-66.814184 70.08227-202.984397-212.062412 70.082269-72.624113 197.174468 205.16312a7.262411 7.262411 0 0 1 2.541844 9.441135zM860.595745 962.632624H92.595745a30.502128 30.502128 0 0 0-30.865249 30.502128 30.865248 30.865248 0 0 0 30.865249 30.865248H860.595745a30.865248 30.865248 0 0 0 30.865248-30.865248 30.502128 30.502128 0 0 0-30.865248-30.502128z" p-id="2871"></path></svg>